PathFileType	4	(X/Y/Z)	C:\Users\WrightLab\Desktop\Jo\P4V113.trc
DataRate	CameraRate	NumFrames	NumMarkers	Units	OrigDataRate	OrigDataStartFrame	OrigNumFrames
100.00	100.00	       24	19	mm	100.00	355	       567
Frame#	Time	Headset_Front			Headset_Back			Headset_Left			Headset_Right			Left_Shoulder			Right_Shoulder			Sternum			C7			Left Elbow			Right Elbow			Left Wrist			Right Wrist			Left ASIS			Right ASIS			S2			Left Knee			Right Knee			Left Ankle			Right Ankle			
		X1	Y1	Z1	X2	Y2	Z2	X3	Y3	Z3	X4	Y4	Z4	X5	Y5	Z5	X6	Y6	Z6	X7	Y7	Z7	X8	Y8	Z8	X9	Y9	Z9	X10	Y10	Z10	X11	Y11	Z11	X12	Y12	Z12	X13	Y13	Z13	X14	Y14	Z14	X15	Y15	Z15	X16	Y16	Z16	X17	Y17	Z17	X18	Y18	Z18	X19	Y19	Z19	

355	3.540	-35.52798	1673.77405	2028.63440	-108.56028	1707.26160	1901.92554							167.86821	1522.96497	1884.74365	-104.23947	1518.22815	1737.25439	-13.48428	1474.96582	1922.32532				304.72653	1177.02917	1950.43018	-245.47824	1173.63770	1698.82104	229.63863	923.11249	2117.28369	-330.44208	941.31787	1884.30945	93.25417	1047.81018	2035.52673	-188.39038	1031.55225	1857.06580				58.95088	596.16321	2164.17749	-102.67003	562.86102	1750.29297	39.57066	101.75003	2213.02515	100.09714	151.66197	1499.04541	
356	3.550	-36.83276	1675.62439	2039.13330	-110.30096	1708.62659	1912.89673							166.15883	1523.70776	1895.92065	-106.10454	1518.86182	1748.08276	-14.72136	1476.24084	1933.17310				302.36172	1177.34802	1961.87976	-246.82251	1174.43799	1710.06055	229.24721	920.22986	2124.76099	-333.67789	939.96558	1891.88745	91.26656	1048.99951	2046.48792	-190.75839	1031.69238	1870.11487				56.17086	595.24323	2174.12329	-109.70232	562.54834	1762.81836	38.96824	101.12129	2214.06421	96.39739	158.20059	1502.89319	
357	3.560	-37.93434	1678.37463	2049.05493	-111.86973	1710.42090	1923.34302							164.51712	1525.04773	1907.18738	-107.61330	1520.16333	1758.88501	-16.91216	1478.43628	1945.19263				299.43683	1179.10266	1973.23584	-248.03033	1175.78137	1721.40857	228.74397	918.87183	2133.69751	-335.82971	939.06171	1900.67932	89.57618	1051.50977	2058.20581	-193.13510	1032.02808	1882.89978				53.98160	596.50317	2186.83008	-117.73208	562.53619	1778.16516	38.43612	100.98107	2214.49365	92.54776	164.74817	1508.48340	
358	3.570	-39.27686	1680.80969	2059.43823	-113.32081	1713.43311	1933.58447							162.31284	1526.13159	1918.57190	-109.21063	1522.27380	1770.50562	-19.27661	1480.36926	1956.95349				296.09296	1179.95813	1986.03406	-248.88394	1177.58667	1732.53113	227.58118	918.23846	2143.32373	-338.38260	938.82227	1908.95081	87.89500	1053.55884	2069.44971	-195.21928	1032.93079	1894.88013				51.35801	597.95844	2197.25391	-126.57451	562.49316	1792.80566	37.70873	100.71161	2215.17236	88.19917	172.84845	1515.09961	
359	3.580	-41.01989	1684.04199	2070.09644	-114.64705	1715.02112	1942.95239							160.29855	1528.21960	1929.82898	-111.38695	1524.03210	1782.61267	-20.73174	1481.49121	1967.40637				292.55045	1180.75684	1995.45349	-249.92799	1179.16785	1743.65344	226.60762	917.96069	2152.23022	-341.55927	938.50555	1916.42371	86.52113	1056.48413	2080.73779	-197.08624	1033.18542	1907.63306				48.56459	598.19214	2206.69409	-136.10211	561.84351	1806.53320	36.64808	104.76376	2218.36890	84.48700	181.02438	1522.10400	
360	3.590	-42.72005	1686.74902	2080.61719	-115.96189	1717.48474	1952.63135							157.71074	1530.80347	1941.83960	-113.76781	1525.70251	1793.60657	-23.36279	1483.41528	1979.04211				290.48685	1182.92908	2008.86230	-250.93063	1181.25513	1754.25574	225.31741	917.79498	2161.74463	-344.08011	938.42523	1924.15063	85.48494	1058.81543	2091.61816	-198.59166	1033.99792	1918.08020				47.26788	600.16003	2217.46436	-145.41730	560.33252	1823.08606	36.47950	104.91561	2218.27417	79.24905	191.44919	1529.91956	
361	3.600	-43.89119	1689.20923	2090.17822	-117.76688	1719.10266	1963.17236							155.85913	1532.01379	1953.17078	-116.96796	1528.57031	1804.76477	-25.69017	1484.58789	1989.43640				288.04321	1185.13733	2020.46313	-252.61359	1182.96191	1763.54089	224.71895	916.71094	2170.24707	-345.93741	939.34357	1933.02771	84.64797	1060.69727	2101.84106	-200.07426	1035.19128	1929.09961				44.65275	600.67914	2224.72314	-154.90390	559.30042	1840.83630	34.37601	104.55905	2217.11157	73.72283	202.35982	1538.67126	
362	3.610	-45.86768	1692.89685	2100.73999	-119.58400	1722.24072	1973.80676							153.45911	1533.65393	1963.63892	-118.95728	1530.85706	1816.04541	-27.86348	1486.80420	1999.89563				285.18170	1187.10693	2031.97729	-254.07367	1185.27014	1773.68323	223.37979	917.49237	2179.30469	-348.48715	939.07397	1939.85522	83.48318	1063.42139	2112.34277	-201.00578	1035.61169	1940.10010				42.61152	602.32367	2233.84473	-164.47491	558.56024	1858.81213	34.15849	104.90554	2216.81250	67.69353	214.60295	1550.38159	
363	3.620	-47.26570	1696.30310	2110.25732	-121.12634	1725.18164	1983.87329							150.68478	1536.12610	1974.20203	-122.28020	1534.08191	1827.41968	-30.33080	1489.12988	2011.19543				282.09778	1188.40747	2039.83093	-256.42960	1187.74597	1784.18579	221.95329	918.65753	2189.21802	-350.55817	940.60889	1948.24939	82.92659	1065.28137	2121.74194	-201.99867	1037.11047	1949.86206				39.04093	602.05029	2238.83521	-173.67984	558.58264	1875.16602	33.93901	105.06503	2216.73438	61.10368	227.56122	1561.98877	
364	3.630	-49.58619	1700.20947	2120.96118	-123.30050	1730.17554	1994.47217							147.97609	1538.37781	1984.42761	-124.81214	1536.00098	1837.21887	-32.24003	1491.13025	2021.53528				280.39325	1191.21277	2052.53076	-258.82166	1190.62048	1794.33582	220.13727	920.20093	2199.06543	-352.92935	941.69177	1957.11755	81.73087	1067.45935	2130.82935	-203.34279	1039.21570	1959.02271				35.77063	600.77368	2241.43359	-181.86035	558.13269	1893.11353	33.70529	105.11216	2216.79590	54.60577	240.57494	1576.46008	
365	3.640	-51.19906	1703.46155	2130.82422	-124.47550	1733.00647	2003.10400							145.65933	1540.54297	1994.93848	-127.26285	1539.74536	1848.54150	-35.51675	1493.08716	2031.58545				277.41470	1193.76221	2062.93799	-261.83972	1193.58032	1806.01074	218.72432	921.60846	2207.12988	-354.79590	942.63428	1964.48523	80.02522	1069.54089	2140.10840	-204.65680	1041.93152	1967.15088				32.20559	601.05652	2244.13452	-190.10973	559.58246	1913.37134	33.60263	105.18678	2216.75952	47.21606	253.52115	1590.07959	
366	3.650	-52.56961	1706.54395	2140.30933	-127.38432	1735.98901	2013.97571							142.63248	1544.24744	2006.37756	-130.59129	1542.19141	1859.04651	-37.97189	1495.52173	2040.97058				275.47272	1197.10608	2074.22900	-264.65396	1196.77295	1815.06494	216.91931	923.09338	2215.38818	-356.10330	944.34863	1973.28003	78.21889	1070.63574	2147.60864	-206.11192	1045.04517	1975.56689				30.27600	601.54297	2248.21729	-198.98758	561.88092	1929.80420	33.73048	105.63328	2216.17090	40.74136	266.36282	1606.63928	
367	3.660	-54.98116	1710.36987	2150.91309	-129.07446	1738.61865	2024.00110							140.23404	1547.19421	2015.54626	-132.52309	1545.18323	1868.09338	-40.71738	1498.51282	2051.67651				272.77594	1200.30530	2083.99463	-267.60681	1199.96326	1826.48486	215.00810	925.60901	2224.35132	-358.10483	946.23041	1980.84741	76.60683	1072.63855	2156.61865	-208.19705	1048.61316	1983.63843				30.26936	602.16534	2252.18311	-206.00818	564.23395	1950.73157	33.12394	106.20093	2216.16724	33.56652	277.22021	1623.93677	
368	3.670	-56.65232	1713.31262	2160.42236	-131.46965	1742.16345	2034.33398							136.73120	1550.03162	2025.49194	-134.99440	1548.72888	1877.66577	-43.37944	1500.73132	2060.18408				269.98651	1203.46875	2093.92798	-270.85065	1203.14673	1835.92969	212.55228	929.07568	2234.39575	-359.42563	948.75928	1990.17822	74.48886	1074.97852	2164.95288	-209.61014	1052.60059	1991.05396				29.63391	601.95978	2255.68115	-212.90067	567.39337	1969.15320	33.12394	106.20093	2216.16724	27.61871	286.53073	1641.52930	
369	3.680	-58.62248	1716.49561	2170.06372	-133.22890	1745.25317	2042.78308							134.94540	1553.07861	2034.39441	-137.72592	1551.38757	1886.94031	-45.85757	1503.30115	2069.51611				268.49866	1207.42371	2104.78052	-273.22244	1206.15234	1845.41150	210.23001	932.53357	2243.92188	-361.03955	950.45038	1998.03735	72.94848	1076.19727	2171.07886	-211.53912	1056.24878	1998.03259				29.44106	601.47534	2259.06641	-219.36246	570.88470	1986.84509	33.12394	106.20093	2216.16724	22.20509	295.72610	1656.96729	
370	3.690	-60.47197	1719.39648	2178.75903	-135.38583	1749.45605	2051.86841							131.54164	1557.06982	2045.39783	-139.29877	1553.96643	1896.16821	-47.91394	1505.74500	2078.52710				266.49319	1210.76147	2114.19043	-276.31805	1209.12280	1854.80420	207.61800	935.33905	2252.11426	-362.59445	953.23102	2006.58826	71.51290	1078.14880	2179.28809	-213.47969	1060.11841	2006.17188				30.32708	603.73474	2263.68237	-225.72891	575.35736	2005.37769	33.12394	106.20093	2216.16724	16.76049	305.65189	1669.92542	
371	3.700	-62.72179	1722.40198	2187.94849	-136.67871	1751.59851	2061.10107							128.84785	1559.00940	2053.54395	-142.36633	1557.08533	1904.87769	-50.66084	1507.25842	2086.19312				264.38052	1214.22571	2123.13477	-278.53012	1212.15234	1862.55762	205.00940	938.71179	2261.50293	-363.23804	956.02759	2015.22473	70.49292	1079.14087	2184.85352	-215.14116	1063.79395	2012.99646				30.91692	603.46411	2265.17847	-231.60930	578.68005	2021.22070				11.28662	312.11087	1684.78088	
372	3.710	-64.37584	1724.58838	2196.88843	-139.73717	1753.77490	2071.06592							126.53671	1562.14429	2062.47144	-144.12303	1559.72461	1914.03552	-52.86334	1509.69580	2096.05127				262.44839	1217.40601	2132.37329	-281.07507	1214.73462	1871.57874	202.08676	942.91589	2271.94092	-364.95496	958.27271	2022.54712	70.01984	1080.62366	2191.10034	-217.10382	1066.74963	2022.36682				32.45805	604.28003	2270.06982	-236.88464	582.63000	2041.08118				5.88411	314.99588	1702.80469	
373	3.720	-65.94583	1726.91235	2205.38843	-141.44781	1755.20032	2078.84155							123.89544	1565.16125	2071.46460	-145.99120	1561.41321	1920.82703	-55.04478	1511.12561	2102.77368				261.08182	1220.44885	2140.53052	-283.03918	1217.12903	1877.85254	199.16011	946.46564	2281.61792	-366.10086	961.47974	2032.34827	68.80101	1081.75256	2197.80566	-219.53496	1069.94299	2030.08875				33.17216	604.57825	2271.30518	-242.91046	587.62885	2055.97852	32.92010	106.26897	2216.18921	-0.23992	316.55972	1721.89587	
374	3.730	-68.20144	1729.07556	2214.52759	-143.65878	1757.32458	2088.35156							121.38351	1566.96875	2079.19141	-148.81302	1564.66150	1931.14929	-57.42501	1513.27966	2111.75244				259.08685	1223.25903	2149.96826	-285.33829	1219.51880	1885.35193	196.75447	949.62103	2290.11035	-368.11646	963.89209	2039.33948	68.14840	1082.42212	2203.25781	-220.60094	1072.37134	2038.41699				34.11039	601.56708	2270.04980	-248.03455	592.23883	2072.80127				-6.85474	319.60904	1736.90393	
375	3.740	-69.87778	1731.11682	2222.63672	-145.42839	1759.85034	2095.94238							119.36097	1569.81055	2087.81812	-151.04645	1566.44031	1938.34375	-59.48772	1515.08508	2119.51172				257.59158	1226.32056	2158.80396	-287.33505	1221.85034	1892.50232	193.52235	953.58710	2300.22876	-369.67426	966.83295	2048.45044	68.21377	1083.37854	2208.98169	-222.55835	1074.62341	2045.76184				34.22765	601.77844	2272.03613	-252.83405	596.97180	2087.68091				-12.99022	319.11414	1751.89661	
376	3.750	-70.99593	1732.75330	2230.11523	-147.02530	1762.20129	2103.83398							116.88435	1571.64563	2095.11743	-152.58177	1568.46021	1946.45422	-61.64211	1516.49670	2127.27148				256.45026	1228.35901	2167.23926	-289.42627	1223.85205	1898.89478	190.57985	957.14478	2310.54541	-372.10968	969.98700	2056.84619	67.69909	1084.21191	2213.93433	-224.20927	1076.72876	2053.75708				35.06728	601.70160	2273.21777	-257.47992	600.38123	2100.63599	33.47144	109.16277	2219.22119	-20.01901	319.06186	1770.05347	
377	3.760	-72.72311	1734.85791	2238.34814	-149.04320	1763.97656	2112.47998							114.61365	1573.49268	2103.85938	-155.05330	1570.33569	1953.18994	-63.19005	1518.02295	2134.57373				254.27022	1229.84729	2175.87769	-291.69028	1225.59705	1905.42505	186.70201	960.80878	2320.63965	-373.53207	973.21490	2065.14209	68.10527	1085.05908	2218.92749	-225.80588	1078.90857	2061.21167				35.87403	602.45825	2275.28613	-262.23416	604.79529	2117.14624	33.47144	109.16277	2219.22119	-26.60162	316.63217	1784.49475	
378	3.770	-74.71706	1736.53796	2246.70654	-151.17934	1765.63562	2120.06519							112.87275	1574.57239	2110.71582	-157.06563	1571.95825	1962.97058	-65.11309	1518.75745	2141.34302				253.56599	1232.12915	2183.72437	-293.49976	1227.20178	1913.12451	183.61250	963.89001	2329.98584	-376.08548	974.58484	2072.20288	68.47815	1084.75317	2222.35278	-227.70277	1080.82971	2070.29517				36.28597	602.22034	2275.41479	-267.19675	609.10632	2131.16309	33.47144	109.16277	2219.22119	-33.77955	313.55707	1801.91443	
